<?xml version="1.0" standalone="no"?><!DOCTYPE svg PUBLIC "-//W3C//DTD SVG 1.1//EN" "http://www.w3.org/Graphics/SVG/1.1/DTD/svg11.dtd"><svg t="1577287960940" class="icon" viewBox="0 0 1024 1024" version="1.1" xmlns="http://www.w3.org/2000/svg" p-id="5313" xmlns:xlink="http://www.w3.org/1999/xlink" width="500" height="500"><defs><style type="text/css"></style></defs><path d="M512 1024C229.241263 1024 0 794.758737 0 512S229.241263 0 512 0s512 229.241263 512 512-229.241263 512-512 512z m208.303158-717.069474c-10.186105 0-16.976842 6.790737-16.976842 16.976842v393.242948c0 16.976842-16.949895 33.926737-33.89979 33.926737H371.011368c-20.345263 0-44.058947-16.976842-44.058947-33.926737V679.882105c0-16.949895 20.345263-27.109053 40.690526-27.109052h284.833685c10.159158 0 16.949895-6.790737 16.949894-16.949895v-332.261053C669.426526 266.293895 642.290526 242.526316 601.6 242.526316h-230.588632C333.716211 242.526316 296.421053 262.871579 296.421053 303.562105v427.169684c3.395368 30.504421 33.899789 54.245053 64.40421 57.613474h308.601263c37.295158 0 67.826526-30.504421 67.826527-64.40421V323.880421c0-6.763789-6.790737-16.949895-16.976842-16.949895z m-64.431158 379.715369H377.802105c-10.159158 0-16.976842 6.790737-16.976842 16.976842 0 10.159158 6.817684 16.922947 16.976842 16.922947h278.069895c10.159158 0 16.949895-6.763789 16.949895-16.949895 0-10.159158-6.790737-16.949895-16.976842-16.949894z" fill="#FF6757" p-id="5314"></path></svg>