<?xml version="1.0" standalone="no"?><!DOCTYPE svg PUBLIC "-//W3C//DTD SVG 1.1//EN" "http://www.w3.org/Graphics/SVG/1.1/DTD/svg11.dtd"><svg t="1577288356284" class="icon" viewBox="0 0 1024 1024" version="1.1" xmlns="http://www.w3.org/2000/svg" p-id="10058" xmlns:xlink="http://www.w3.org/1999/xlink" width="500" height="500"><defs><style type="text/css"></style></defs><path d="M818.33953659 257.23486815c-11.18481067-20.19479703-20.50548622-37.90408059-27.02995911-51.57440474-0.31068918-0.31068918-0.31068918-0.93206755-0.62137837-1.24275674-17.39859437-34.48649955-39.14683733-53.43853985-65.86610726-58.40956682-41.01097245-7.45654045-74.56540445 21.12686459-106.56639052 50.64233718-11.80618903-20.50548622-22.9909997-39.7682157-32.00098608-57.47749925l-1.55344592-2.79620267c-0.93206755-1.55344592-1.86413511-3.41758103-3.10689185-4.66033778-18.33066192-25.165824-46.60337778-36.97201303-75.80816118-31.69029688-33.24374282 5.90309452-60.27370192 32.31167525-70.52644505 68.9729991-2.48551348 8.388608-6.83516208 17.39859437-12.73825658 25.78720237-17.39859437-29.20478341-32.62236445-52.5064723-41.32166164-68.9729991-51.57440475-84.50745837-113.71224178-62.13783703-109.051904 5.28171615 8.388608 119.6153363-200.39452445 200.70521363-200.39452444 200.70521362l133.59634963 623.86388386 4.97102696-0.93206756c4.34964859 5.59240533 10.25274311 9.94205392 16.777216 12.42756741 6.52447289 4.97102697 14.91308089 8.07791882 23.61237807 8.07791881 1.55344592 0 3.10689185 0 4.66033778-0.31068919 349.52533333-41.63235082 556.44433067-133.90703882 632.56318105-281.79509095 82.02194489-158.14079525-12.73825659-332.12673897-69.59437749-435.89692682z m-297.64023941 288.94094222v-0.62137837-0.31068918c0.62137837-6.83516208 1.24275675-13.35963497 1.55344593-20.19479704v-1.24275675c0-1.86413511 0.31068918-4.03895941 0.31068919-5.90309451v-2.48551349-4.97102695-3.10689186-4.0389594-3.72827023-3.72827022-4.66033778-2.48551348c0-1.86413511 0-3.72827022-0.31068919-5.59240533v-1.55344593c-1.24275675-23.30168889-4.34964859-45.98199941-8.69929719-68.04093155-0.31068918-1.24275675-0.31068918-2.1748243-0.62137837-3.41758105 0-0.62137837-0.31068918-1.24275675-0.31068918-1.8641351-0.31068918-1.86413511-0.93206755-3.72827022-1.24275674-5.59240533-1.24275675-5.90309452-2.79620267-11.80618903-4.3496486-18.01997274v-0.62137838c-0.62137837-2.48551348-1.24275675-5.28171615-2.17482428-7.76722962-11.18481067-39.45752652-26.09789155-76.11885037-41.94304-109.051904 22.68031052-22.05893215 39.7682157-50.02095882 47.8461345-77.98298549 2.1748243-7.45654045 5.90309452-11.49549985 8.07791883-13.04894577 11.80618903 22.68031052 26.09789155 47.22475615 41.01097244 73.01195851 66.17679645 113.40155259 148.50943052 254.76513185 97.24571496 379.97287349-37.28270222 91.03193125-142.606336 167.77216-314.10676623 228.66724029 118.68326875-104.70225541 167.46147082-211.8900243 177.71421393-311.62125274z m298.88299615 111.2267283c-35.7292563 69.2836883-114.02293097 125.20774163-233.32757808 167.77216 69.59437748-48.46751289 116.81913363-103.77018785 142.29564683-166.21871408 56.23474252-137.63530903-6.83516208-279.30957748-70.83713423-393.64319762 2.79620267-2.48551348 5.59240533-4.97102697 8.07791882-7.45654045 13.04894578-12.11687822 34.48649955-31.69029689 44.42855348-35.10787793 1.86413511 1.86413511 5.59240533 6.2137837 10.5634323 15.84514844 7.45654045 16.15583763 17.39859437 34.48649955 28.89409422 55.61336415 53.12785067 96.31364741 132.66428208 242.02687525 69.90506666 363.19565749z" fill="#8124db" p-id="10059"></path></svg>