<?xml version="1.0" standalone="no"?><!DOCTYPE svg PUBLIC "-//W3C//DTD SVG 1.1//EN" "http://www.w3.org/Graphics/SVG/1.1/DTD/svg11.dtd"><svg t="1577288302226" class="icon" viewBox="0 0 1053 1024" version="1.1" xmlns="http://www.w3.org/2000/svg" p-id="9311" xmlns:xlink="http://www.w3.org/1999/xlink" width="514.16015625" height="500"><defs><style type="text/css"></style></defs><path d="M997.903 302.448l-85.69-49.272V53.362A50.83 50.83 0 0 0 864.304 0H185.208a51.025 51.025 0 0 0-48.882 53.362v197.477l-88.223 51.61S0 327.96 0 360.872v594.38A68.747 68.747 0 0 0 68.552 1024h908.903a68.747 68.747 0 0 0 68.552-68.747v-594.38c0-32.913-48.104-58.425-48.104-58.425zM147.426 427.283l-73.81-43.234 70.11-40.703 3.7-1.558v85.495z m355.226-249.475a22.007 22.007 0 0 1 22.007-22.007h308.29a22.202 22.202 0 0 1 22.007 22.007v5.063a22.202 22.202 0 0 1-22.007 22.007H524.66a22.007 22.007 0 0 1-22.007-22.007v-5.063z m-244.218-5.064a16.943 16.943 0 0 1 16.944-16.943H426.31a16.943 16.943 0 0 1 16.943 16.943v151.71a16.943 16.943 0 0 1-16.943 16.944H275.378a16.943 16.943 0 0 1-16.944-16.943z m600.028 241.102a22.007 22.007 0 0 1-21.033 22.006H280.44a21.812 21.812 0 0 1-22.007-22.006v-4.87a21.812 21.812 0 0 1 22.007-22.006H837.43a22.007 22.007 0 0 1 21.033 22.007z m0-118.993a22.007 22.007 0 0 1-21.033 22.007H528.164a21.812 21.812 0 0 1-21.812-22.007v-5.064a21.812 21.812 0 0 1 22.007-21.812h309.07a22.007 22.007 0 0 1 22.007 21.812v5.064z m121.72 133.599v-85.69l69.915 40.508 3.505 2.337z" fill="#06B666" p-id="9312"></path></svg>