<?xml version="1.0" standalone="no"?><!DOCTYPE svg PUBLIC "-//W3C//DTD SVG 1.1//EN" "http://www.w3.org/Graphics/SVG/1.1/DTD/svg11.dtd"><svg t="1577287832067" class="icon" viewBox="0 0 1024 1024" version="1.1" xmlns="http://www.w3.org/2000/svg" p-id="3537" xmlns:xlink="http://www.w3.org/1999/xlink" width="500" height="500"><defs><style type="text/css"></style></defs><path d="M512 981.333c259.206 0 469.333-210.127 469.333-469.333S771.206 42.667 512 42.667 42.667 252.794 42.667 512 252.794 981.333 512 981.333z m273.778-369.777l-149.334-64v-85.334l149.334-64v213.334zM316.444 398.347c0-23.633 19.06-42.791 42.494-42.791h235.013c23.468 0 42.493 18.682 42.493 42.791v213.084c0 23.633-19.059 42.791-42.493 42.791H358.938c-23.469 0-42.494-18.683-42.494-42.791V398.347z" fill="#00A651" p-id="3538"></path></svg>