<?xml version="1.0" standalone="no"?><!DOCTYPE svg PUBLIC "-//W3C//DTD SVG 1.1//EN" "http://www.w3.org/Graphics/SVG/1.1/DTD/svg11.dtd"><svg t="1577287760749" class="icon" viewBox="0 0 1024 1024" version="1.1" xmlns="http://www.w3.org/2000/svg" p-id="2787" xmlns:xlink="http://www.w3.org/1999/xlink" width="500" height="500"><defs><style type="text/css"></style></defs><path d="M852.471937 69.813993V23.267492A23.03712 23.03712 0 0 0 829.768855 0H194.232297a23.03712 23.03712 0 0 0-22.703082 23.267492v46.546501zM897.878101 186.174488v-46.546501a23.03712 23.03712 0 0 0-22.7146-23.267492H148.837651a23.03712 23.03712 0 0 0-22.703082 23.267492v46.546501zM943.261228 256a23.03712 23.03712 0 0 0-22.703082-23.267492H103.443006a23.03712 23.03712 0 0 0-22.703082 23.267492v302.546502h272.379392a45.820832 45.820832 0 0 1 45.394646 46.546501v18.118696c0 60.737368 43.125489 114.966749 102.146591 121.013993a114.747897 114.747897 0 0 0 124.838156-115.899753v-23.267491a45.820832 45.820832 0 0 1 45.394645-46.546502h272.379393z" fill="#FEA41E" p-id="2788"></path><path d="M988.655874 605.093003H693.584918a23.03712 23.03712 0 0 0-22.703082 23.267492v23.267492a160.211654 160.211654 0 0 1-317.774038 0v-23.267492a23.03712 23.03712 0 0 0-22.691564-23.267492H35.345278A23.03712 23.03712 0 0 0 12.642196 628.360495v372.360495A23.03712 23.03712 0 0 0 35.345278 1024h953.310596a23.03712 23.03712 0 0 0 22.703082-23.27901V628.360495a23.03712 23.03712 0 0 0-22.703082-23.267492z" fill="#FEA41E" p-id="2789"></path></svg>